<svg width="144" height="125" viewBox="0 0 144 125" fill="none" xmlns="http://www.w3.org/2000/svg">
<rect x="4" y="8" width="136" height="108" rx="6" fill="white"/>
<path d="M54.457 50.0273H47.707V57H44.1914V39.9375H55.3008V42.7852H47.707V47.1914H54.457V50.0273ZM64.0664 57C63.9102 56.6953 63.7969 56.3164 63.7266 55.8633C62.9062 56.7773 61.8398 57.2344 60.5273 57.2344C59.2852 57.2344 58.2539 56.875 57.4336 56.1562C56.6211 55.4375 56.2148 54.5312 56.2148 53.4375C56.2148 52.0938 56.7109 51.0625 57.7031 50.3438C58.7031 49.625 60.1445 49.2617 62.0273 49.2539H63.5859V48.5273C63.5859 47.9414 63.4336 47.4727 63.1289 47.1211C62.832 46.7695 62.3594 46.5938 61.7109 46.5938C61.1406 46.5938 60.6914 46.7305 60.3633 47.0039C60.043 47.2773 59.8828 47.6523 59.8828 48.1289H56.4961C56.4961 47.3945 56.7227 46.7148 57.1758 46.0898C57.6289 45.4648 58.2695 44.9766 59.0977 44.625C59.9258 44.2656 60.8555 44.0859 61.8867 44.0859C63.4492 44.0859 64.6875 44.4805 65.6016 45.2695C66.5234 46.0508 66.9844 47.1523 66.9844 48.5742V54.0703C66.9922 55.2734 67.1602 56.1836 67.4883 56.8008V57H64.0664ZM61.2656 54.6445C61.7656 54.6445 62.2266 54.5352 62.6484 54.3164C63.0703 54.0898 63.3828 53.7891 63.5859 53.4141V51.2344H62.3203C60.625 51.2344 59.7227 51.8203 59.6133 52.9922L59.6016 53.1914C59.6016 53.6133 59.75 53.9609 60.0469 54.2344C60.3438 54.5078 60.75 54.6445 61.2656 54.6445ZM59.2734 40.3594C59.2734 39.6875 59.5273 39.1211 60.0352 38.6602C60.543 38.1914 61.1602 37.957 61.8867 37.957C62.6055 37.957 63.2188 38.1875 63.7266 38.6484C64.2422 39.1016 64.5 39.6719 64.5 40.3594C64.5 41.0234 64.25 41.582 63.75 42.0352C63.25 42.4883 62.6289 42.7148 61.8867 42.7148C61.1289 42.7148 60.5039 42.4844 60.0117 42.0234C59.5195 41.5625 59.2734 41.0078 59.2734 40.3594ZM60.6211 40.3594C60.6211 40.7031 60.7344 41 60.9609 41.25C61.1875 41.4922 61.4961 41.6133 61.8867 41.6133C62.2773 41.6133 62.5859 41.4922 62.8125 41.25C63.0391 41 63.1523 40.7031 63.1523 40.3594C63.1523 40 63.0352 39.6992 62.8008 39.457C62.5742 39.207 62.2695 39.082 61.8867 39.082C61.5039 39.082 61.1953 39.207 60.9609 39.457C60.7344 39.6992 60.6211 40 60.6211 40.3594ZM81.3984 57.2344C79.5391 57.2344 78.0234 56.6641 76.8516 55.5234C75.6875 54.3828 75.1055 52.8633 75.1055 50.9648V50.6367C75.1055 49.3633 75.3516 48.2266 75.8438 47.2266C76.3359 46.2188 77.0312 45.4453 77.9297 44.9062C78.8359 44.3594 79.8672 44.0859 81.0234 44.0859C82.7578 44.0859 84.1211 44.6328 85.1133 45.7266C86.1133 46.8203 86.6133 48.3711 86.6133 50.3789V51.7617H78.5391C78.6484 52.5898 78.9766 53.2539 79.5234 53.7539C80.0781 54.2539 80.7773 54.5039 81.6211 54.5039C82.9258 54.5039 83.9453 54.0312 84.6797 53.0859L86.3438 54.9492C85.8359 55.668 85.1484 56.2305 84.2812 56.6367C83.4141 57.0352 82.4531 57.2344 81.3984 57.2344ZM81.0117 46.8281C80.3398 46.8281 79.793 47.0547 79.3711 47.5078C78.957 47.9609 78.6914 48.6094 78.5742 49.4531H83.2852V49.1836C83.2695 48.4336 83.0664 47.8555 82.6758 47.4492C82.2852 47.0352 81.7305 46.8281 81.0117 46.8281ZM92.6016 41.2031V44.3203H94.7695V46.8047H92.6016V53.1328C92.6016 53.6016 92.6914 53.9375 92.8711 54.1406C93.0508 54.3438 93.3945 54.4453 93.9023 54.4453C94.2773 54.4453 94.6094 54.418 94.8984 54.3633V56.9297C94.2344 57.1328 93.5508 57.2344 92.8477 57.2344C90.4727 57.2344 89.2617 56.0352 89.2148 53.6367V46.8047H87.3633V44.3203H89.2148V41.2031H92.6016ZM38.3438 85.2344C36.4844 85.2344 34.9688 84.6641 33.7969 83.5234C32.6328 82.3828 32.0508 80.8633 32.0508 78.9648V78.6367C32.0508 77.3633 32.2969 76.2266 32.7891 75.2266C33.2812 74.2188 33.9766 73.4453 34.875 72.9062C35.7812 72.3594 36.8125 72.0859 37.9688 72.0859C39.7031 72.0859 41.0664 72.6328 42.0586 73.7266C43.0586 74.8203 43.5586 76.3711 43.5586 78.3789V79.7617H35.4844C35.5938 80.5898 35.9219 81.2539 36.4688 81.7539C37.0234 82.2539 37.7227 82.5039 38.5664 82.5039C39.8711 82.5039 40.8906 82.0312 41.625 81.0859L43.2891 82.9492C42.7812 83.668 42.0938 84.2305 41.2266 84.6367C40.3594 85.0352 39.3984 85.2344 38.3438 85.2344ZM37.957 74.8281C37.2852 74.8281 36.7383 75.0547 36.3164 75.5078C35.9023 75.9609 35.6367 76.6094 35.5195 77.4531H40.2305V77.1836C40.2148 76.4336 40.0117 75.8555 39.6211 75.4492C39.2305 75.0352 38.6758 74.8281 37.957 74.8281ZM52.3594 81.4961C52.3594 81.082 52.1523 80.7578 51.7383 80.5234C51.332 80.2812 50.6758 80.0664 49.7695 79.8789C46.7539 79.2461 45.2461 77.9648 45.2461 76.0352C45.2461 74.9102 45.7109 73.9727 46.6406 73.2227C47.5781 72.4648 48.8008 72.0859 50.3086 72.0859C51.918 72.0859 53.2031 72.4648 54.1641 73.2227C55.1328 73.9805 55.6172 74.9648 55.6172 76.1758H52.2305C52.2305 75.6914 52.0742 75.293 51.7617 74.9805C51.4492 74.6602 50.9609 74.5 50.2969 74.5C49.7266 74.5 49.2852 74.6289 48.9727 74.8867C48.6602 75.1445 48.5039 75.4727 48.5039 75.8711C48.5039 76.2461 48.6797 76.5508 49.0312 76.7852C49.3906 77.0117 49.9922 77.2109 50.8359 77.3828C51.6797 77.5469 52.3906 77.7344 52.9688 77.9453C54.7578 78.6016 55.6523 79.7383 55.6523 81.3555C55.6523 82.5117 55.1562 83.4492 54.1641 84.168C53.1719 84.8789 51.8906 85.2344 50.3203 85.2344C49.2578 85.2344 48.3125 85.0469 47.4844 84.6719C46.6641 84.2891 46.0195 83.7695 45.5508 83.1133C45.082 82.4492 44.8477 81.7344 44.8477 80.9688H48.0586C48.0898 81.5703 48.3125 82.0312 48.7266 82.3516C49.1406 82.6719 49.6953 82.832 50.3906 82.832C51.0391 82.832 51.5273 82.7109 51.8555 82.4688C52.1914 82.2188 52.3594 81.8945 52.3594 81.4961ZM61.8984 69.2031V72.3203H64.0664V74.8047H61.8984V81.1328C61.8984 81.6016 61.9883 81.9375 62.168 82.1406C62.3477 82.3438 62.6914 82.4453 63.1992 82.4453C63.5742 82.4453 63.9062 82.418 64.1953 82.3633V84.9297C63.5312 85.1328 62.8477 85.2344 62.1445 85.2344C59.7695 85.2344 58.5586 84.0352 58.5117 81.6367V74.8047H56.6602V72.3203H58.5117V69.2031H61.8984ZM69.5273 85H66.1289V72.3203H69.5273V85ZM65.9297 69.0391C65.9297 68.5312 66.0977 68.1133 66.4336 67.7852C66.7773 67.457 67.2422 67.293 67.8281 67.293C68.4062 67.293 68.8672 67.457 69.2109 67.7852C69.5547 68.1133 69.7266 68.5312 69.7266 69.0391C69.7266 69.5547 69.5508 69.9766 69.1992 70.3047C68.8555 70.6328 68.3984 70.7969 67.8281 70.7969C67.2578 70.7969 66.7969 70.6328 66.4453 70.3047C66.1016 69.9766 65.9297 69.5547 65.9297 69.0391ZM75.5039 72.3203L75.6094 73.7383C76.5078 72.6367 77.7227 72.0859 79.2539 72.0859C80.8867 72.0859 82.0078 72.7305 82.6172 74.0195C83.5078 72.7305 84.7773 72.0859 86.4258 72.0859C87.8008 72.0859 88.8242 72.4883 89.4961 73.293C90.168 74.0898 90.5039 75.293 90.5039 76.9023V85H87.1055V76.9141C87.1055 76.1953 86.9648 75.6719 86.6836 75.3438C86.4023 75.0078 85.9062 74.8398 85.1953 74.8398C84.1797 74.8398 83.4766 75.3242 83.0859 76.293L83.0977 85H79.7109V76.9258C79.7109 76.1914 79.5664 75.6602 79.2773 75.332C78.9883 75.0039 78.4961 74.8398 77.8008 74.8398C76.8398 74.8398 76.1445 75.2383 75.7148 76.0352V85H72.3281V72.3203H75.5039ZM100.465 85C100.309 84.6953 100.195 84.3164 100.125 83.8633C99.3047 84.7773 98.2383 85.2344 96.9258 85.2344C95.6836 85.2344 94.6523 84.875 93.832 84.1562C93.0195 83.4375 92.6133 82.5312 92.6133 81.4375C92.6133 80.0938 93.1094 79.0625 94.1016 78.3438C95.1016 77.625 96.543 77.2617 98.4258 77.2539H99.9844V76.5273C99.9844 75.9414 99.832 75.4727 99.5273 75.1211C99.2305 74.7695 98.7578 74.5938 98.1094 74.5938C97.5391 74.5938 97.0898 74.7305 96.7617 75.0039C96.4414 75.2773 96.2812 75.6523 96.2812 76.1289H92.8945C92.8945 75.3945 93.1211 74.7148 93.5742 74.0898C94.0273 73.4648 94.668 72.9766 95.4961 72.625C96.3242 72.2656 97.2539 72.0859 98.2852 72.0859C99.8477 72.0859 101.086 72.4805 102 73.2695C102.922 74.0508 103.383 75.1523 103.383 76.5742V82.0703C103.391 83.2734 103.559 84.1836 103.887 84.8008V85H100.465ZM97.6641 82.6445C98.1641 82.6445 98.625 82.5352 99.0469 82.3164C99.4688 82.0898 99.7812 81.7891 99.9844 81.4141V79.2344H98.7188C97.0234 79.2344 96.1211 79.8203 96.0117 80.9922L96 81.1914C96 81.6133 96.1484 81.9609 96.4453 82.2344C96.7422 82.5078 97.1484 82.6445 97.6641 82.6445ZM110.039 69.2031V72.3203H112.207V74.8047H110.039V81.1328C110.039 81.6016 110.129 81.9375 110.309 82.1406C110.488 82.3438 110.832 82.4453 111.34 82.4453C111.715 82.4453 112.047 82.418 112.336 82.3633V84.9297C111.672 85.1328 110.988 85.2344 110.285 85.2344C107.91 85.2344 106.699 84.0352 106.652 81.6367V74.8047H104.801V72.3203H106.652V69.2031H110.039Z" fill="#003355"/>
</svg>
