<svg xmlns="http://www.w3.org/2000/svg" viewBox="0 0 841.7 597.5"><title>Branding</title><g id="Lag_7" data-name="Lag 7"><rect width="841.7" height="597.5" fill="#2f0d00"/></g><g id="Lag_8" data-name="Lag 8"><path d="M183.85,230.77q15.42,0,22.32,7.17t6.9,21.69v4.48q0,9.69-3,16a19.37,19.37,0,0,1-9.68,9.32q8.07,3.06,11.39,9.95t3.31,17V326.5q0,14.53-7.52,22.15t-22.42,7.61h-31V230.77Zm-10,17.92v33.17h7.71c3.7,0,6.6-.95,8.69-2.87s3.14-5.37,3.14-10.39v-7q0-6.81-2.42-9.86t-7.62-3.05Zm0,51.1v38.55H185.1q5,0,7.62-2.69t2.6-9.68V315q0-8.79-2.95-12c-2-2.15-5.23-3.23-9.78-3.23Z" transform="translate(-0.1 1.11)" fill="#fff"/><path d="M268.11,356.26c-.24-.83-.48-1.61-.72-2.33a17.94,17.94,0,0,1-.62-2.68,33,33,0,0,1-.36-4.13q-.09-2.5-.09-6.27V321.13q0-8.79-3.05-12.38t-9.86-3.58H246.6v51.09H226.88V230.77h29.76q15.42,0,22.32,7.17t6.9,21.69v9.86q0,19.36-12.91,25.46a17.64,17.64,0,0,1,10.31,9.95A45,45,0,0,1,286,321.66V341a80.56,80.56,0,0,0,.36,8.15,26,26,0,0,0,1.79,7.08ZM246.6,248.69v38.55h7.71c3.7,0,6.6-.95,8.69-2.87s3.14-5.38,3.14-10.4V261.6q0-6.81-2.42-9.86t-7.62-3.05Z" transform="translate(-0.1 1.11)" fill="#fff"/><path d="M362.77,356.26h-19.9l-3.41-22.76h-24.2l-3.41,22.76h-18.1l20.08-125.49h28.86Zm-45-39.8h19L327.27,253Z" transform="translate(-0.1 1.11)" fill="#fff"/><path d="M389.48,265.37v90.89H371.73V230.77h24.75l20.25,75.12V230.77H434.3V356.26H414.05Z" transform="translate(-0.1 1.11)" fill="#fff"/><path d="M448.47,230.77h31.19q14.88,0,22.14,7.88t7.26,23.13v63.47q0,15.24-7.26,23.13t-22.14,7.88H448.47Zm19.72,17.92v89.65H479.3a9.93,9.93,0,0,0,7.35-2.69q2.7-2.7,2.69-9.5V260.89q0-6.81-2.69-9.51a9.93,9.93,0,0,0-7.35-2.69Z" transform="translate(-0.1 1.11)" fill="#fff"/><path d="M521.61,230.77h19.72V356.26H521.61Z" transform="translate(-0.1 1.11)" fill="#fff"/><path d="M573.24,265.37v90.89H555.49V230.77h24.74l20.26,75.12V230.77h17.57V356.26H597.8Z" transform="translate(-0.1 1.11)" fill="#fff"/><path d="M661.81,286.34h27.61v39.81q0,15.24-7.45,23.39t-22,8.16q-14.52,0-22-8.16t-7.44-23.39V260.89q0-15.24,7.44-23.4t22-8.16q14.52,0,22,8.16t7.45,23.4v12.19H670.77V259.63q0-6.81-2.78-9.59a11.35,11.35,0,0,0-14.88,0q-2.77,2.78-2.78,9.59V327.4q0,6.81,2.78,9.5a11.63,11.63,0,0,0,14.88,0q2.78-2.68,2.78-9.5V304.27h-9Z" transform="translate(-0.1 1.11)" fill="#fff"/><polyline points="270.62 191.17 420.85 40.94 571.08 191.17" fill="none" stroke="#fff" stroke-miterlimit="10" stroke-width="2.51"/><polygon points="420.85 544.87 283.13 407.14 284.75 405.52 420.85 541.63 556.95 405.52 558.57 407.14 420.85 544.87" fill="#fff"/></g><g id="Lag_9" data-name="Lag 9"><path d="M720.08,407H121.81V188.25H720.08Zm-594.66-3.61H716.47V191.86H125.42Z" transform="translate(-0.1 1.11)" fill="#fff"/><polygon points="423.35 443.11 426.88 453.97 438.29 453.97 429.06 460.68 432.59 471.53 423.35 464.82 414.12 471.53 417.64 460.68 408.41 453.97 419.82 453.97 423.35 443.11" fill="#fff"/><polygon points="423.35 117.72 426.88 128.58 438.29 128.58 429.06 135.29 432.59 146.14 423.35 139.43 414.12 146.14 417.64 135.29 408.41 128.58 419.82 128.58 423.35 117.72" fill="#fff"/></g></svg>