<svg id="Lag_1" data-name="Lag 1" xmlns="http://www.w3.org/2000/svg" viewBox="0 0 471.75 479.74"><title>TTBECH GRAFISK DESIGN opt SVG</title><path d="M29.31,73.35H91.78V93H68.94V213.12H52V93H29.31Z" transform="translate(-14.16 -10.13)"/><path d="M93.8,195.33h17.08v17.79H93.8Z" transform="translate(-14.16 -10.13)"/><path d="M118.22,73.35h62.47V93H157.85V213.12H140.92V93h-22.7Z" transform="translate(-14.16 -10.13)"/><path d="M182.71,195.33h17.08v17.79H182.71Z" transform="translate(-14.16 -10.13)"/><path d="M225.85,72.13h26.48q10,0,15.19,2.06t8.78,9.22q3.6,7.14,3.59,17.39,0,18.75-13,24.7,15.71,6.38,15.7,28.35a38.42,38.42,0,0,1-6.18,21.77q-6.19,9.28-23.69,9.29H225.85ZM240,118.9h9.17q9.68,0,12.75-4.59T265,102.45q0-8.51-3.53-12.19T250.6,86.59H240ZM240,170h11.67q16,0,16-18.26A24.17,24.17,0,0,0,264.32,139q-3.4-5.61-13.85-5.62H240Z" transform="translate(-14.16 -10.13)"/><path d="M297.39,72.13h50.13v15H311.88v32.23h27.95v15H311.88v35.28H348.1v15.28H297.39Z" transform="translate(-14.16 -10.13)"/><path d="M401.75,147l13.33,2.39Q411,187,386.46,187q-15.94,0-23.76-15.78T354.89,129q0-28.51,8.26-43.71T387,70.06q24.07,0,28.24,38.51l-13.46,2.56Q399.58,85.51,387,85.51q-16.77,0-16.76,44.54,0,41.47,16.76,41.48,6.72,0,10-6.32T401.75,147Z" transform="translate(-14.16 -10.13)"/><path d="M427.07,72.13h14.49V118.9h25.77V72.13h14.48V184.91H467.33V134.68H441.56v50.23H427.07Z" transform="translate(-14.16 -10.13)"/><path d="M29.3,288.79H53.78q17.79,0,28.43,8.09t16.11,24.06a108.75,108.75,0,0,1,5.47,35.43q0,20.47-4.91,36.5t-15,25.86q-10.1,9.82-28.75,9.83H29.3Zm18,18.54V410h7.51q15.72,0,22.83-14t7.11-37.32q0-51.41-29.94-51.4Z" transform="translate(-14.16 -10.13)"/><path d="M121,288.79h62.3v18.54H139v39.93h34.74v18.63H139v43.72h45v18.95H121Z" transform="translate(-14.16 -10.13)"/><path d="M260.82,320l-15.38,6.86q-2.7-11.11-7.13-16.41t-12.07-5.29a12.65,12.65,0,0,0-11,5.39,20.67,20.67,0,0,0-3.87,12.37q0,7.71,4.35,12.27t17.32,10.92q11.08,5.43,17,10.34a35.53,35.53,0,0,1,9.68,13.16,46.2,46.2,0,0,1,3.71,19.1q0,17.61-9.68,30t-27.13,12.39q-30.12,0-37.29-39.12l16.1-5.83q4.22,25.8,22,25.8,8.68,0,13.18-5.79a24.1,24.1,0,0,0,1.4-25.85Q239,375,226.64,369q-13.06-6.34-18.84-10.75t-9.84-13a45.22,45.22,0,0,1-4.06-19.56q0-16.68,9-28t24-11.37Q253.5,286.23,260.82,320Z" transform="translate(-14.16 -10.13)"/><path d="M279.46,288.79h18V428.56h-18Z" transform="translate(-14.16 -10.13)"/><path d="M355.31,356.88h36.33v72.7H382l-2.4-17.71q-8.26,19.25-26.15,19.25-18.21,0-28.47-19t-10.25-51.55q0-34.31,10.14-54.32t31.16-20q29.29,0,35,42.6l-16.25,5.22q-2.86-18-7.71-23.35a15,15,0,0,0-11.45-5.32q-21.87,0-21.87,53.14,0,53.44,22.38,53.45,18.57,0,18.57-36.55H355.31Z" transform="translate(-14.16 -10.13)"/><path d="M409.57,288.79h21.2l35.76,100.76V288.79h15.06V428.56H464.78L424.62,316.64V428.56H409.57Z" transform="translate(-14.16 -10.13)"/><path d="M241.09,237.06H259.2v38.55h-4.79l-1.19-9.39q-4.12,10.2-13,10.21-9.08,0-14.19-10.08T220.87,239q0-18.2,5.06-28.81t15.54-10.61q14.6,0,17.45,22.58l-8.1,2.77q-1.42-9.55-3.84-12.38a7.33,7.33,0,0,0-5.71-2.82q-10.9,0-10.9,28.18,0,28.35,11.15,28.34,9.27,0,9.26-19.38h-9.69Z" transform="translate(-14.16 -10.13)"/><path d="M268.42,201h16.32q8.86,0,13.07,5.49T302,222.18q0,13.69-8.3,19.39L304,275.07h-9.74l-8.43-30.95h-8.45v30.95h-9Zm9,9.51v24.16h6.88a7.41,7.41,0,0,0,6.77-3.48,17,17,0,0,0,2.16-9.06q0-11.62-8.86-11.62Z" transform="translate(-14.16 -10.13)"/><path d="M321.53,201h10.06l14.56,74.12h-9.09l-3.4-18.57h-15.9l-3.37,18.57h-8.56Zm10.36,45.88-6.22-33.93-6.15,33.93Z" transform="translate(-14.16 -10.13)"/><path d="M351.55,201h30.11v9.83H360.53v22.15h16.92v9.83H360.53v32.31h-9Z" transform="translate(-14.16 -10.13)"/><path d="M386.19,201h9v74.12h-9Z" transform="translate(-14.16 -10.13)"/><path d="M437.86,217.51l-7.66,3.64q-1.35-5.9-3.56-8.7a7.23,7.23,0,0,0-6-2.81,6.21,6.21,0,0,0-5.47,2.86,11.49,11.49,0,0,0-1.92,6.56,9.41,9.41,0,0,0,2.16,6.51c1.45,1.62,4.32,3.55,8.64,5.79a44.34,44.34,0,0,1,8.5,5.48,18.81,18.81,0,0,1,4.83,7,28.72,28.72,0,0,1-3,26q-4.83,6.57-13.53,6.57-15,0-18.59-20.74l8-3.1q2.1,13.68,11,13.68a7.62,7.62,0,0,0,6.57-3.06,13.44,13.44,0,0,0,.7-13.71q-1.54-2.83-7.71-6a59.63,59.63,0,0,1-9.39-5.7,18.33,18.33,0,0,1-4.91-6.9,25.31,25.31,0,0,1-2-10.37q0-8.85,4.51-14.88a14.19,14.19,0,0,1,12-6Q434.21,199.6,437.86,217.51Z" transform="translate(-14.16 -10.13)"/><path d="M447.16,201h9V236.3L472.49,201H482l-14,27.21,16.37,46.91h-9.73l-12.13-36.8-6.39,12.47v24.33h-9Z" transform="translate(-14.16 -10.13)"/><rect y="220.25" width="185.41" height="39.23"/><rect width="471.75" height="39.23"/><rect y="440.5" width="471.75" height="39.23"/></svg>